HIERARCHY
ROOT SpineBase
{
  OFFSET 0.000000 0.000000 0.000000
  CHANNELS 6 Xposition Yposition Zposition Zrotation Xrotation Yrotation
  JOINT SpineMid
  {
    OFFSET 0.000000 32.988442 0.000000
    CHANNELS 3 Zrotation Xrotation Yrotation
    JOINT SpineShoulder
    {
      OFFSET 0.286012 24.439163 -0.707277
      CHANNELS 3 Zrotation Xrotation Yrotation
      JOINT Neck
      {
        OFFSET 0.200792 8.055342 -0.548274
        CHANNELS 3 Zrotation Xrotation Yrotation
        JOINT Head
        {
          OFFSET 5.019553 12.472467 5.318496
          CHANNELS 3 Zrotation Xrotation Yrotation
          End Site
          {
            OFFSET 0 0 0
          }
        }
      }
      JOINT ShoulderLeft
      {
        OFFSET -5.739929 -4.123074 -14.893710
        CHANNELS 3 Zrotation Xrotation Yrotation
        JOINT ElbowLeft
        {
          OFFSET -5.953751 -26.035893 -7.699921
          CHANNELS 3 Zrotation Xrotation Yrotation
          JOINT WristLeft
          {
            OFFSET 1.593018 -23.120679 -2.461355
            CHANNELS 3 Zrotation Xrotation Yrotation
            JOINT HandLeft
            {
              OFFSET 0.644960 -8.556389 2.276453
              CHANNELS 3 Zrotation Xrotation Yrotation
              JOINT HandTipLeft
              {
                OFFSET 0.764968 -8.539293 1.019810
                CHANNELS 3 Zrotation Xrotation Yrotation
                End Site
                {
                  OFFSET 0 0 0
                }
              }
              JOINT ThumbLeft
              {
                OFFSET 4.514203 3.321072 5.866016
                CHANNELS 3 Zrotation Xrotation Yrotation
                End Site
                {
                  OFFSET 0 0 0
                }
              }
            }
          }
        }
      }
      JOINT ShoulderRight
      {
        OFFSET 7.127218 -7.856034 12.822789
        CHANNELS 3 Zrotation Xrotation Yrotation
        JOINT ElbowRight
        {
          OFFSET 0.225034 -25.741238 7.884332
          CHANNELS 3 Zrotation Xrotation Yrotation
          JOINT WristRight
          {
            OFFSET 1.281317 -19.384677 3.967983
            CHANNELS 3 Zrotation Xrotation Yrotation
            JOINT HandRight
            {
              OFFSET -2.099288 -11.753705 0.557132
              CHANNELS 3 Zrotation Xrotation Yrotation
              JOINT HandTipRight
              {
                OFFSET -0.118693 -4.405766 0.272604
                CHANNELS 3 Zrotation Xrotation Yrotation
                End Site
                {
                  OFFSET 0 0 0
                }
              }
              JOINT ThumbRight
              {
                OFFSET -0.442364 0.531442 -3.962394
                CHANNELS 3 Zrotation Xrotation Yrotation
                End Site
                {
                  OFFSET 0 0 0
                }
              }
            }
          }
        }
      }
    }
  }
  JOINT HipLeft
  {
    OFFSET -2.382411 1.695343 -9.428576
    CHANNELS 3 Zrotation Xrotation Yrotation
    JOINT KneeLeft
    {
      OFFSET -9.091437 -33.040203 0.387773
      CHANNELS 3 Zrotation Xrotation Yrotation
      JOINT AnkleLeft
      {
        OFFSET -7.961761 -34.798608 8.472928
        CHANNELS 3 Zrotation Xrotation Yrotation
        JOINT FootLeft
        {
          OFFSET 9.606144 -4.711921 -7.043638
          CHANNELS 3 Zrotation Xrotation Yrotation
          End Site
          {
            OFFSET 0 0 0
          }
        }
      }
    }
  }
  JOINT HipRight
  {
    OFFSET 4.239155 -0.255979 2.146009
    CHANNELS 3 Zrotation Xrotation Yrotation
    JOINT KneeRight
    {
      OFFSET -6.445449 -32.621909 5.506362
      CHANNELS 3 Zrotation Xrotation Yrotation
      JOINT AnkleRight
      {
        OFFSET -14.290228 -36.604211 1.317563
        CHANNELS 3 Zrotation Xrotation Yrotation
        JOINT FootRight
        {
          OFFSET 10.643374 -4.306473 -8.159594
          CHANNELS 3 Zrotation Xrotation Yrotation
          End Site
          {
            OFFSET 0 0 0
          }
        }
      }
    }
  }
}
MOTION
Frames: 5
Frame Time: 0.033333
-92.863501 78.475234 356.453163 -0.000000 0.000000 -60.227074 0.000000 0.000000 60.227074 -0.000000 0.000000 0.000000 -0.000000 0.000000 0.000000 0.000000 0.000000 0.000000 -0.000000 0.000000 0.000000 -0.000000 0.000000 0.000000 -0.000000 0.000000 0.000000 -0.000000 0.000000 0.000000 0.000000 0.000000 0.000000 0.000000 0.000000 0.000000 -0.000000 0.000000 0.000000 -0.000000 0.000000 0.000000 -0.000000 0.000000 0.000000 -0.000000 0.000000 0.000000 0.000000 0.000000 0.000000 0.000000 0.000000 0.000000 0.000000 0.000000 60.227074 -0.000000 0.000000 0.000000 -0.000000 0.000000 0.000000 0.000000 0.000000 0.000000 0.000000 0.000000 60.227074 -0.000000 0.000000 0.000000 -0.000000 0.000000 0.000000 0.000000 0.000000 0.000000
-92.808675 78.578609 356.681898 0.120593 -0.087558 -60.674414 -0.135400 -0.062256 60.674433 -0.000000 0.000000 0.000000 -0.000000 0.000000 0.000000 0.000000 0.000000 0.000000 -0.041483 0.866424 -0.185122 1.485545 0.013621 0.103196 -0.764287 3.001968 0.548187 0.120963 -6.112456 -0.527692 0.000000 0.000000 0.000000 0.000000 0.000000 0.000000 -0.000000 0.000000 0.000000 -0.383381 1.875104 0.051937 0.579882 -3.472632 0.264415 -1.160274 0.147290 -0.297474 0.000000 0.000000 0.000000 0.000000 0.000000 0.000000 -0.135400 -0.062256 60.674433 -0.000000 0.000000 0.000000 1.801527 2.088050 1.445489 0.000000 0.000000 0.000000 -0.135400 -0.062256 60.674433 -0.000000 0.000000 0.000000 -0.856359 -0.632051 0.057416 0.000000 0.000000 0.000000
-92.759462 78.653468 356.857420 0.233519 -0.177655 -61.111229 -0.268362 -0.118633 61.111313 -0.000000 0.000000 0.000000 -0.000000 0.000000 0.000000 0.000000 0.000000 0.000000 -0.030565 1.656453 -0.367738 2.690361 -0.034948 0.235656 -1.471522 5.686524 0.976941 0.214625 -11.446407 -0.901335 0.000000 0.000000 0.000000 0.000000 0.000000 0.000000 -0.000000 0.000000 0.000000 -0.649761 3.358336 0.108784 1.068542 -6.542954 0.554247 -1.843646 0.974000 -0.553193 0.000000 0.000000 0.000000 0.000000 0.000000 0.000000 -0.268362 -0.118633 61.111313 -0.000000 0.000000 0.000000 2.619304 3.053293 2.061734 0.000000 0.000000 0.000000 -1.517019 -0.176280 60.787096 0.659772 -1.061701 0.327116 -1.694864 -1.248003 0.115124 0.000000 0.000000 0.000000
-92.715864 78.699811 356.979729 0.338612 -0.270199 -61.539116 -0.398911 -0.168924 61.539327 0.710544 -0.398246 0.060754 -0.895720 -0.490424 0.381988 0.000000 0.000000 0.000000 -0.673865 2.760208 -0.603592 3.643903 -0.119510 0.386975 -2.150616 7.958113 1.298895 0.325230 -15.916022 -1.145338 0.000000 0.000000 0.000000 0.000000 0.000000 0.000000 -0.710139 0.398969 -0.055812 -0.814701 4.517422 0.165533 1.473292 -9.161354 0.838504 -2.166093 2.169787 -0.769976 0.000000 0.000000 0.000000 0.000000 0.000000 0.000000 -0.398911 -0.168924 61.539327 -0.000000 0.000000 0.000000 2.689182 3.103566 2.053550 0.000000 0.000000 0.000000 -2.121151 -0.112831 61.100000 0.783353 -1.534843 0.445585 -2.510514 -1.843941 0.174175 0.000000 0.000000 0.000000
-92.677880 78.717639 357.048826 0.435723 -0.365092 -61.959506 -0.527065 -0.212951 61.959914 0.890957 -0.544181 0.078428 -1.060024 -0.452513 0.405212 0.000000 0.000000 0.000000 -0.733984 3.518273 -0.795306 4.369783 -0.219497 0.547517 -2.822690 9.750784 1.525098 0.484452 -19.464923 -1.277620 0.000000 0.000000 0.000000 0.000000 0.000000 0.000000 -0.890252 0.545334 -0.069961 -0.887556 5.399680 0.219583 1.785611 -11.228787 1.079368 -2.171506 3.494908 -0.949123 0.000000 0.000000 0.000000 0.000000 0.000000 0.000000 -0.527065 -0.212951 61.959914 -0.000000 0.000000 0.000000 2.032301 2.259124 1.433683 0.000000 0.000000 0.000000 -2.635094 0.050354 61.435907 0.776963 -1.977288 0.534424 -3.298199 -2.415921 0.235751 0.000000 0.000000 0.000000
